<?xml version="1.0" standalone="no"?>
<!DOCTYPE svg PUBLIC "-//W3C//DTD SVG 20010904//EN"
 "http://www.w3.org/TR/2001/REC-SVG-20010904/DTD/svg10.dtd">
<svg version="1.0" xmlns="http://www.w3.org/2000/svg"
 width="260.000000pt" height="260.000000pt" viewBox="0 0 260.000000 260.000000"
 preserveAspectRatio="xMidYMid meet">
<metadata>
Created by potrace 1.14, written by Peter Selinger 2001-2017
</metadata>
<g transform="translate(0.000000,260.000000) scale(0.100000,-0.100000)"
fill="#000000" stroke="none">
<path d="M1180 2414 c-323 -49 -568 -184 -752 -413 -356 -446 -321 -1088 82
-1491 437 -436 1142 -436 1579 1 335 335 422 837 221 1266 -160 342 -496 585
-872 633 -79 10 -205 11 -258 4z m-378 -399 c337 -44 610 -181 840 -423 230
-242 357 -535 384 -884 6 -84 5 -87 -19 -112 -29 -29 -54 -33 -82 -12 -15 11
-21 37 -31 145 -33 339 -165 612 -402 832 -210 194 -455 301 -764 332 -71 8
-133 18 -138 23 -5 5 -12 21 -15 36 -5 21 -1 33 19 52 30 31 50 32 208 11z
m43 -401 c172 -33 366 -138 498 -271 171 -170 269 -389 292 -645 6 -74 5 -78
-19 -103 -57 -57 -100 -22 -110 91 -40 447 -368 782 -801 819 -103 9 -111 12
-125 44 -13 33 -3 62 28 80 20 13 125 6 237 -15z m-45 -391 c242 -66 419 -282
445 -540 5 -58 4 -65 -19 -88 -14 -14 -34 -25 -46 -25 -30 0 -60 35 -60 73 0
54 -28 154 -61 219 -68 134 -205 227 -374 252 -93 14 -100 18 -110 58 -5 21
-1 33 20 53 24 25 30 26 88 20 34 -3 87 -13 117 -22z"/>
</g>
</svg>
